<svg height="4638" width="720" xmlns="http://www.w3.org/2000/svg">
<rect height="4638" fill="#555" width="720"></rect>
<text fill="#7f7" font-family="Courier New" font-size="12" xml:space="preserve">
<tspan x="10" y="26">36 megabytes installed</tspan>
<tspan x="10" y="42"></tspan>
<tspan x="10" y="58">node_modules</tspan>
<tspan x="10" y="74">└─┬ cnpmjs.org@2.19.4 </tspan>
<tspan x="10" y="90">  ├── agentkeepalive@2.2.0 </tspan>
<tspan x="10" y="106">  ├── await-event@1.0.0 </tspan>
<tspan x="10" y="122">  ├── bytes@2.5.0 </tspan>
<tspan x="10" y="138">  ├── cfork@1.6.0 </tspan>
<tspan x="10" y="154">  ├─┬ changes-stream@1.1.0 </tspan>
<tspan x="10" y="170">  │ ├── back@0.1.5 </tspan>
<tspan x="10" y="186">  │ ├── debug@0.8.1 </tspan>
<tspan x="10" y="202">  │ ├── http-https@1.0.0 </tspan>
<tspan x="10" y="218">  │ └─┬ readable-stream@1.0.34 </tspan>
<tspan x="10" y="234">  │   ├── inherits@2.0.3 </tspan>
<tspan x="10" y="250">  │   ├── isarray@0.0.1 </tspan>
<tspan x="10" y="266">  │   └── string_decoder@0.10.31 </tspan>
<tspan x="10" y="282">  ├── co@4.6.0 </tspan>
<tspan x="10" y="298">  ├── co-defer@1.0.0 </tspan>
<tspan x="10" y="314">  ├─┬ co-gather@0.0.1 </tspan>
<tspan x="10" y="330">  │ └── co-thread@0.0.1 </tspan>
<tspan x="10" y="346">  ├── co-sleep@0.0.1 </tspan>
<tspan x="10" y="362">  ├─┬ commander@2.9.0 </tspan>
<tspan x="10" y="378">  │ └── graceful-readlink@1.0.1 </tspan>
<tspan x="10" y="394">  ├── copy-to@2.0.1 </tspan>
<tspan x="10" y="410">  ├─┬ debug@2.6.4 </tspan>
<tspan x="10" y="426">  │ └── ms@0.7.3 </tspan>
<tspan x="10" y="442">  ├─┬ error-formater@1.0.3 </tspan>
<tspan x="10" y="458">  │ └─┬ utility@0.1.16 </tspan>
<tspan x="10" y="474">  │   └── address@0.0.3 </tspan>
<tspan x="10" y="490">  ├─┬ fs-cnpm@1.2.0 </tspan>
<tspan x="10" y="506">  │ └─┬ co-fs@1.2.0 </tspan>
<tspan x="10" y="522">  │   ├─┬ co-from-stream@0.0.0 </tspan>
<tspan x="10" y="538">  │   │ └── co-read@0.0.1 </tspan>
<tspan x="10" y="554">  │   └── thunkify@0.0.1 </tspan>
<tspan x="10" y="570">  ├── giturl@1.0.0 </tspan>
<tspan x="10" y="586">  ├── graceful@1.0.1 </tspan>
<tspan x="10" y="602">  ├─┬ gravatar@1.6.0 </tspan>
<tspan x="10" y="618">  │ ├── blueimp-md5@2.7.0 </tspan>
<tspan x="10" y="634">  │ ├── email-validator@1.0.7 </tspan>
<tspan x="10" y="650">  │ ├── querystring@0.2.0 </tspan>
<tspan x="10" y="666">  │ └─┬ yargs@6.6.0 </tspan>
<tspan x="10" y="682">  │   ├── camelcase@3.0.0 </tspan>
<tspan x="10" y="698">  │   ├─┬ cliui@3.2.0 </tspan>
<tspan x="10" y="714">  │   │ ├─┬ strip-ansi@3.0.1 </tspan>
<tspan x="10" y="730">  │   │ │ └── ansi-regex@2.1.1 </tspan>
<tspan x="10" y="746">  │   │ └── wrap-ansi@2.1.0 </tspan>
<tspan x="10" y="762">  │   ├── decamelize@1.2.0 </tspan>
<tspan x="10" y="778">  │   ├── get-caller-file@1.0.2 </tspan>
<tspan x="10" y="794">  │   ├─┬ os-locale@1.4.0 </tspan>
<tspan x="10" y="810">  │   │ └─┬ lcid@1.0.0 </tspan>
<tspan x="10" y="826">  │   │   └── invert-kv@1.0.0 </tspan>
<tspan x="10" y="842">  │   ├─┬ read-pkg-up@1.0.1 </tspan>
<tspan x="10" y="858">  │   │ ├─┬ find-up@1.1.2 </tspan>
<tspan x="10" y="874">  │   │ │ ├── path-exists@2.1.0 </tspan>
<tspan x="10" y="890">  │   │ │ └─┬ pinkie-promise@2.0.1 </tspan>
<tspan x="10" y="906">  │   │ │   └── pinkie@2.0.4 </tspan>
<tspan x="10" y="922">  │   │ └─┬ read-pkg@1.1.0 </tspan>
<tspan x="10" y="938">  │   │   ├─┬ load-json-file@1.1.0 </tspan>
<tspan x="10" y="954">  │   │   │ ├── graceful-fs@4.1.11 </tspan>
<tspan x="10" y="970">  │   │   │ ├─┬ parse-json@2.2.0 </tspan>
<tspan x="10" y="986">  │   │   │ │ └─┬ error-ex@1.3.1 </tspan>
<tspan x="10" y="1002">  │   │   │ │   └── is-arrayish@0.2.1 </tspan>
<tspan x="10" y="1018">  │   │   │ ├── pify@2.3.0 </tspan>
<tspan x="10" y="1034">  │   │   │ └─┬ strip-bom@2.0.0 </tspan>
<tspan x="10" y="1050">  │   │   │   └── is-utf8@0.2.1 </tspan>
<tspan x="10" y="1066">  │   │   ├─┬ normalize-package-data@2.3.8 </tspan>
<tspan x="10" y="1082">  │   │   │ ├── hosted-git-info@2.4.2 </tspan>
<tspan x="10" y="1098">  │   │   │ ├─┬ is-builtin-module@1.0.0 </tspan>
<tspan x="10" y="1114">  │   │   │ │ └── builtin-modules@1.1.1 </tspan>
<tspan x="10" y="1130">  │   │   │ └─┬ validate-npm-package-license@3.0.1 </tspan>
<tspan x="10" y="1146">  │   │   │   ├─┬ spdx-correct@1.0.2 </tspan>
<tspan x="10" y="1162">  │   │   │   │ └── spdx-license-ids@1.2.2 </tspan>
<tspan x="10" y="1178">  │   │   │   └── spdx-expression-parse@1.0.4 </tspan>
<tspan x="10" y="1194">  │   │   └── path-type@1.1.0 </tspan>
<tspan x="10" y="1210">  │   ├── require-directory@2.1.1 </tspan>
<tspan x="10" y="1226">  │   ├── require-main-filename@1.0.1 </tspan>
<tspan x="10" y="1242">  │   ├── set-blocking@2.0.0 </tspan>
<tspan x="10" y="1258">  │   ├─┬ string-width@1.0.2 </tspan>
<tspan x="10" y="1274">  │   │ ├── code-point-at@1.1.0 </tspan>
<tspan x="10" y="1290">  │   │ └─┬ is-fullwidth-code-point@1.0.0 </tspan>
<tspan x="10" y="1306">  │   │   └── number-is-nan@1.0.1 </tspan>
<tspan x="10" y="1322">  │   ├── which-module@1.0.0 </tspan>
<tspan x="10" y="1338">  │   ├── y18n@3.2.1 </tspan>
<tspan x="10" y="1354">  │   └── yargs-parser@4.2.1 </tspan>
<tspan x="10" y="1370">  ├── humanize-ms@1.2.0 </tspan>
<tspan x="10" y="1386">  ├── humanize-number@0.0.2 </tspan>
<tspan x="10" y="1402">  ├─┬ is-type-of@1.0.0 </tspan>
<tspan x="10" y="1418">  │ ├── core-util-is@1.0.2 </tspan>
<tspan x="10" y="1434">  │ ├── is-class@0.0.4 </tspan>
<tspan x="10" y="1450">  │ └── isstream@0.1.2 </tspan>
<tspan x="10" y="1466">  ├── kcors@1.3.2 </tspan>
<tspan x="10" y="1482">  ├─┬ koa@1.4.0 </tspan>
<tspan x="10" y="1498">  │ ├─┬ accepts@1.3.3 </tspan>
<tspan x="10" y="1514">  │ │ └── negotiator@0.6.1 </tspan>
<tspan x="10" y="1530">  │ ├── composition@2.3.0 </tspan>
<tspan x="10" y="1546">  │ ├── content-disposition@0.5.2 </tspan>
<tspan x="10" y="1562">  │ ├── content-type@1.0.2 </tspan>
<tspan x="10" y="1578">  │ ├─┬ cookies@0.7.0 </tspan>
<tspan x="10" y="1594">  │ │ └── keygrip@1.0.1 </tspan>
<tspan x="10" y="1610">  │ ├── delegates@1.0.0 </tspan>
<tspan x="10" y="1626">  │ ├── destroy@1.0.4 </tspan>
<tspan x="10" y="1642">  │ ├── error-inject@1.0.0 </tspan>
<tspan x="10" y="1658">  │ ├── escape-html@1.0.3 </tspan>
<tspan x="10" y="1674">  │ ├── fresh@0.3.0 </tspan>
<tspan x="10" y="1690">  │ ├─┬ http-assert@1.2.0 </tspan>
<tspan x="10" y="1706">  │ │ ├── deep-equal@1.0.1 </tspan>
<tspan x="10" y="1722">  │ │ └─┬ http-errors@1.4.0 </tspan>
<tspan x="10" y="1738">  │ │   └── inherits@2.0.1 </tspan>
<tspan x="10" y="1754">  │ ├─┬ http-errors@1.6.1 </tspan>
<tspan x="10" y="1770">  │ │ └── setprototypeof@1.0.3 </tspan>
<tspan x="10" y="1786">  │ ├── koa-compose@2.5.1 </tspan>
<tspan x="10" y="1802">  │ ├── koa-is-json@1.0.0 </tspan>
<tspan x="10" y="1818">  │ ├─┬ mime-types@2.1.15 </tspan>
<tspan x="10" y="1834">  │ │ └── mime-db@1.27.0 </tspan>
<tspan x="10" y="1850">  │ ├── on-finished@2.3.0 </tspan>
<tspan x="10" y="1866">  │ ├── only@0.0.2 </tspan>
<tspan x="10" y="1882">  │ ├── parseurl@1.3.1 </tspan>
<tspan x="10" y="1898">  │ ├── statuses@1.3.1 </tspan>
<tspan x="10" y="1914">  │ ├─┬ type-is@1.6.15 </tspan>
<tspan x="10" y="1930">  │ │ └── media-typer@0.3.0 </tspan>
<tspan x="10" y="1946">  │ └── vary@1.1.1 </tspan>
<tspan x="10" y="1962">  ├─┬ koa-limit@1.0.2 </tspan>
<tspan x="10" y="1978">  │ ├── debug@0.7.4 </tspan>
<tspan x="10" y="1994">  │ └── ipchecker@0.0.2 </tspan>
<tspan x="10" y="2010">  ├─┬ koa-markdown@2.0.1 </tspan>
<tspan x="10" y="2026">  │ ├─┬ markdown-it@3.0.7 </tspan>
<tspan x="10" y="2042">  │ │ └── autolinker@0.15.3 </tspan>
<tspan x="10" y="2058">  │ └── utility@1.3.2 </tspan>
<tspan x="10" y="2074">  ├── koa-maxrequests@1.0.0 </tspan>
<tspan x="10" y="2090">  ├─┬ koa-middlewares@2.1.0 </tspan>
<tspan x="10" y="2106">  │ ├─┬ koa-bodyparser@1.3.1 </tspan>
<tspan x="10" y="2122">  │ │ └─┬ co-body@1.0.0 </tspan>
<tspan x="10" y="2138">  │ │   ├── qs@1.0.2 </tspan>
<tspan x="10" y="2154">  │ │   └─┬ raw-body@1.1.7 </tspan>
<tspan x="10" y="2170">  │ │     └── bytes@1.0.0 </tspan>
<tspan x="10" y="2186">  │ ├─┬ koa-compress@1.0.9 </tspan>
<tspan x="10" y="2202">  │ │ └── compressible@2.0.10 </tspan>
<tspan x="10" y="2218">  │ ├── koa-conditional-get@1.0.3 </tspan>
<tspan x="10" y="2234">  │ ├─┬ koa-csrf@2.1.3 </tspan>
<tspan x="10" y="2250">  │ │ └─┬ csrf@2.0.7 </tspan>
<tspan x="10" y="2266">  │ │   ├── base64-url@1.2.1 </tspan>
<tspan x="10" y="2282">  │ │   ├── rndm@1.1.1 </tspan>
<tspan x="10" y="2298">  │ │   ├── scmp@1.0.0 </tspan>
<tspan x="10" y="2314">  │ │   └── uid-safe@1.1.0 </tspan>
<tspan x="10" y="2330">  │ ├─┬ koa-ejs@1.1.3 </tspan>
<tspan x="10" y="2346">  │ │ ├── ejs@1.0.0 </tspan>
<tspan x="10" y="2362">  │ │ └── is-type-of@0.2.1 </tspan>
<tspan x="10" y="2378">  │ ├─┬ koa-etag@2.0.0 </tspan>
<tspan x="10" y="2394">  │ │ ├── etag@1.8.0 </tspan>
<tspan x="10" y="2410">  │ │ └─┬ mz@1.3.0 </tspan>
<tspan x="10" y="2426">  │ │   └── native-or-bluebird@1.1.2 </tspan>
<tspan x="10" y="2442">  │ ├── koa-favicon@1.2.1 </tspan>
<tspan x="10" y="2458">  │ ├─┬ koa-generic-session@1.5.0 </tspan>
<tspan x="10" y="2474">  │ │ ├── crc@3.2.1 </tspan>
<tspan x="10" y="2490">  │ │ └─┬ uid-safe@1.0.3 </tspan>
<tspan x="10" y="2506">  │ │   └── base64-url@1.2.0 </tspan>
<tspan x="10" y="2522">  │ ├─┬ koa-logger@1.2.2 </tspan>
<tspan x="10" y="2538">  │ │ ├── bytes@1.0.0 </tspan>
<tspan x="10" y="2554">  │ │ └── passthrough-counter@0.0.1 </tspan>
<tspan x="10" y="2570">  │ ├─┬ koa-onerror@1.2.1 </tspan>
<tspan x="10" y="2586">  │ │ └─┬ swig@1.4.2 </tspan>
<tspan x="10" y="2602">  │ │   ├─┬ optimist@0.6.1 </tspan>
<tspan x="10" y="2618">  │ │   │ └── wordwrap@0.0.3 </tspan>
<tspan x="10" y="2634">  │ │   └─┬ uglify-js@2.4.24 </tspan>
<tspan x="10" y="2650">  │ │     ├── async@0.2.10 </tspan>
<tspan x="10" y="2666">  │ │     ├─┬ source-map@0.1.34 </tspan>
<tspan x="10" y="2682">  │ │     │ └── amdefine@1.0.1 </tspan>
<tspan x="10" y="2698">  │ │     ├── uglify-to-browserify@1.0.2 </tspan>
<tspan x="10" y="2714">  │ │     └─┬ yargs@3.5.4 </tspan>
<tspan x="10" y="2730">  │ │       ├── camelcase@1.2.1 </tspan>
<tspan x="10" y="2746">  │ │       ├── window-size@0.1.0 </tspan>
<tspan x="10" y="2762">  │ │       └── wordwrap@0.0.2 </tspan>
<tspan x="10" y="2778">  │ ├─┬ koa-redis@1.0.1 </tspan>
<tspan x="10" y="2794">  │ │ ├── co-redis@1.1.1 </tspan>
<tspan x="10" y="2810">  │ │ └── redis@0.12.1 </tspan>
<tspan x="10" y="2826">  │ ├─┬ koa-resource-router@0.3.3 </tspan>
<tspan x="10" y="2842">  │ │ ├── debug@0.7.4 </tspan>
<tspan x="10" y="2858">  │ │ ├── defaults@1.0.3 </tspan>
<tspan x="10" y="2874">  │ │ ├── koa-compose@2.2.0 </tspan>
<tspan x="10" y="2890">  │ │ ├── lingo@0.0.5 </tspan>
<tspan x="10" y="2906">  │ │ └── path-to-regexp@0.0.2 </tspan>
<tspan x="10" y="2922">  │ ├── koa-rewrite@1.1.1 </tspan>
<tspan x="10" y="2938">  │ ├─┬ koa-router@3.8.0 </tspan>
<tspan x="10" y="2954">  │ │ ├── methods@1.1.2 </tspan>
<tspan x="10" y="2970">  │ │ └── path-to-regexp@1.7.0 </tspan>
<tspan x="10" y="2986">  │ ├── koa-rt@0.0.2 </tspan>
<tspan x="10" y="3002">  │ ├─┬ koa-session@3.1.1 </tspan>
<tspan x="10" y="3018">  │ │ └─┬ debug@2.2.0 </tspan>
<tspan x="10" y="3034">  │ │   └── ms@0.7.1 </tspan>
<tspan x="10" y="3050">  │ └─┬ koa-static-cache@3.0.3 </tspan>
<tspan x="10" y="3066">  │   ├── fs-readdir-recursive@1.0.0 </tspan>
<tspan x="10" y="3082">  │   └─┬ mime-types@2.0.14 </tspan>
<tspan x="10" y="3098">  │     └── mime-db@1.12.0 </tspan>
<tspan x="10" y="3114">  ├─┬ koa-mock@1.6.2 </tspan>
<tspan x="10" y="3130">  │ ├─┬ debug@2.2.0 </tspan>
<tspan x="10" y="3146">  │ │ └── ms@0.7.1 </tspan>
<tspan x="10" y="3162">  │ └─┬ urlmock@2.0.1 </tspan>
<tspan x="10" y="3178">  │   ├─┬ debug@2.2.0 </tspan>
<tspan x="10" y="3194">  │   │ └── ms@0.7.1 </tspan>
<tspan x="10" y="3210">  │   └── extend@2.0.1 </tspan>
<tspan x="10" y="3226">  ├─┬ koa-safe-jsonp@0.3.1 </tspan>
<tspan x="10" y="3242">  │ └── jsonp-body@1.0.0 </tspan>
<tspan x="10" y="3258">  ├─┬ markdown-it@3.1.0 </tspan>
<tspan x="10" y="3274">  │ ├─┬ argparse@1.0.9 </tspan>
<tspan x="10" y="3290">  │ │ └── sprintf-js@1.0.3 </tspan>
<tspan x="10" y="3306">  │ ├─┬ linkify-it@0.1.5 </tspan>
<tspan x="10" y="3322">  │ │ └── uc.micro@1.0.3 </tspan>
<tspan x="10" y="3338">  │ ├── mdurl@1.0.1 </tspan>
<tspan x="10" y="3354">  │ └── uc.micro@0.1.0 </tspan>
<tspan x="10" y="3370">  ├── mime@1.3.4 </tspan>
<tspan x="10" y="3386">  ├─┬ mini-logger@1.1.2 </tspan>
<tspan x="10" y="3402">  │ ├── copy-to@1.0.1 </tspan>
<tspan x="10" y="3418">  │ ├── error-formatter@1.0.5 </tspan>
<tspan x="10" y="3434">  │ ├── iconv-lite@0.4.15 </tspan>
<tspan x="10" y="3450">  │ ├── logfilestream@1.1.0 </tspan>
<tspan x="10" y="3466">  │ └─┬ sdk-base@1.1.0 </tspan>
<tspan x="10" y="3482">  │   └── get-ready@1.0.0 </tspan>
<tspan x="10" y="3498">  ├─┬ mkdirp@0.5.1 </tspan>
<tspan x="10" y="3514">  │ └── minimist@0.0.8 </tspan>
<tspan x="10" y="3530">  ├── moment@2.18.1 </tspan>
<tspan x="10" y="3546">  ├─┬ mysql@2.13.0 </tspan>
<tspan x="10" y="3562">  │ ├── bignumber.js@3.1.2 </tspan>
<tspan x="10" y="3578">  │ ├── readable-stream@1.1.14 </tspan>
<tspan x="10" y="3594">  │ └── sqlstring@2.2.0 </tspan>
<tspan x="10" y="3610">  ├─┬ mz@2.6.0 </tspan>
<tspan x="10" y="3626">  │ ├── any-promise@1.3.0 </tspan>
<tspan x="10" y="3642">  │ ├── object-assign@4.1.1 </tspan>
<tspan x="10" y="3658">  │ └─┬ thenify-all@1.6.0 </tspan>
<tspan x="10" y="3674">  │   └── thenify@3.2.1 </tspan>
<tspan x="10" y="3690">  ├─┬ nodemailer@1.11.0 </tspan>
<tspan x="10" y="3706">  │ ├─┬ libmime@1.2.0 </tspan>
<tspan x="10" y="3722">  │ │ ├── libbase64@0.1.0 </tspan>
<tspan x="10" y="3738">  │ │ └── libqp@1.1.0 </tspan>
<tspan x="10" y="3754">  │ ├─┬ mailcomposer@2.1.0 </tspan>
<tspan x="10" y="3770">  │ │ └─┬ buildmail@2.0.0 </tspan>
<tspan x="10" y="3786">  │ │   ├── addressparser@0.3.2 </tspan>
<tspan x="10" y="3802">  │ │   └── needle@0.10.0 </tspan>
<tspan x="10" y="3818">  │ ├── needle@0.11.0 </tspan>
<tspan x="10" y="3834">  │ ├─┬ nodemailer-direct-transport@1.1.0 </tspan>
<tspan x="10" y="3850">  │ │ └── smtp-connection@1.3.8 </tspan>
<tspan x="10" y="3866">  │ └─┬ nodemailer-smtp-transport@1.1.0 </tspan>
<tspan x="10" y="3882">  │   ├── clone@1.0.2 </tspan>
<tspan x="10" y="3898">  │   └── nodemailer-wellknown@0.1.10 </tspan>
<tspan x="10" y="3914">  ├── normalize-registry-metadata@1.1.2 </tspan>
<tspan x="10" y="3930">  ├── semver@5.3.0 </tspan>
<tspan x="10" y="3946">  ├─┬ sequelize@3.30.4 </tspan>
<tspan x="10" y="3962">  │ ├── bluebird@3.5.0 </tspan>
<tspan x="10" y="3978">  │ ├── depd@1.1.0 </tspan>
<tspan x="10" y="3994">  │ ├── dottie@1.1.1 </tspan>
<tspan x="10" y="4010">  │ ├── generic-pool@2.4.2 </tspan>
<tspan x="10" y="4026">  │ ├── inflection@1.12.0 </tspan>
<tspan x="10" y="4042">  │ ├── lodash@4.12.0 </tspan>
<tspan x="10" y="4058">  │ ├── moment-timezone@0.5.13 </tspan>
<tspan x="10" y="4074">  │ ├─┬ retry-as-promised@2.2.0 </tspan>
<tspan x="10" y="4090">  │ │ └─┬ cross-env@3.2.4 </tspan>
<tspan x="10" y="4106">  │ │   ├─┬ cross-spawn@5.1.0 </tspan>
<tspan x="10" y="4122">  │ │   │ ├─┬ lru-cache@4.0.2 </tspan>
<tspan x="10" y="4138">  │ │   │ │ ├── pseudomap@1.0.2 </tspan>
<tspan x="10" y="4154">  │ │   │ │ └── yallist@2.1.2 </tspan>
<tspan x="10" y="4170">  │ │   │ ├─┬ shebang-command@1.2.0 </tspan>
<tspan x="10" y="4186">  │ │   │ │ └── shebang-regex@1.0.0 </tspan>
<tspan x="10" y="4202">  │ │   │ └─┬ which@1.2.14 </tspan>
<tspan x="10" y="4218">  │ │   │   └── isexe@2.0.0 </tspan>
<tspan x="10" y="4234">  │ │   └── is-windows@1.0.0 </tspan>
<tspan x="10" y="4250">  │ ├── shimmer@1.1.0 </tspan>
<tspan x="10" y="4266">  │ ├─┬ terraformer-wkt-parser@1.1.2 </tspan>
<tspan x="10" y="4282">  │ │ └── terraformer@1.0.7 </tspan>
<tspan x="10" y="4298">  │ ├── toposort-class@1.0.1 </tspan>
<tspan x="10" y="4314">  │ ├── uuid@3.0.1 </tspan>
<tspan x="10" y="4330">  │ ├── validator@5.7.0 </tspan>
<tspan x="10" y="4346">  │ └── wkx@0.2.0 </tspan>
<tspan x="10" y="4362">  ├─┬ thunkify-wrap@1.0.4 </tspan>
<tspan x="10" y="4378">  │ └── enable@1.3.2 </tspan>
<tspan x="10" y="4394">  ├── treekill@1.0.0 </tspan>
<tspan x="10" y="4410">  ├── tunnel-agent@0.4.3 </tspan>
<tspan x="10" y="4426">  ├─┬ urllib@2.22.0 </tspan>
<tspan x="10" y="4442">  │ ├─┬ default-user-agent@1.0.0 </tspan>
<tspan x="10" y="4458">  │ │ └─┬ os-name@1.0.3 </tspan>
<tspan x="10" y="4474">  │ │   ├─┬ osx-release@1.1.0 </tspan>
<tspan x="10" y="4490">  │ │   │ └── minimist@1.2.0 </tspan>
<tspan x="10" y="4506">  │ │   └── win-release@1.1.1 </tspan>
<tspan x="10" y="4522">  │ ├─┬ digest-header@0.0.1 </tspan>
<tspan x="10" y="4538">  │ │ └── utility@0.1.11 </tspan>
<tspan x="10" y="4554">  │ ├── ee-first@1.1.1 </tspan>
<tspan x="10" y="4570">  │ └── qs@6.4.0 </tspan>
<tspan x="10" y="4586">  ├── utility@1.12.0 </tspan>
<tspan x="10" y="4602">  └─┬ xss@0.2.18 </tspan>
<tspan x="10" y="4618">    └── cssfilter@0.0.8</tspan>
</text>
</svg>
